# xmcd
# 
# Track frame offsets:
#   150
#   17063
#   35029
#   53988
#   68348
#   86976
#   103034
#   123247
#   141369
#   156026
#   174238
#   189774
#   207335
#   223987
#   245544
#   262967
#   280990
# 
# Disc length: 3984 seconds
# 
# Revision: 3
# Processed by: cddbd v1.5.2PL0 Copyright (c) Steve Scherf et al.
# Submitted via: Synapstar 1.0 
# 
DISCID=f60f8e11
DTITLE=Various Artist - CB 5124-01
DYEAR=2009
DGENRE=Country
TTITLE0=Montgomery Gentry - One In Every Crowd
TTITLE1=Lady Antebellum - I Run To You
TTITLE2=John Rich - Shuttin' Detroit Down
TTITLE3=Joey and Rory - Cheater, Cheater
TTITLE4=Rascal Flatts - It's Not Supposed To Go Like That
TTITLE5=Kenny Chesney - Out Last Night
TTITLE6=Carrie Underwood - I Told You So
TTITLE7=Jimmy Wayne - I Will
TTITLE8=Keith Urban - Marry For Money
TTITLE9=Kellie Pickler - Best Days Of Your Life
TTITLE10=George Strait - River Of Love
TTITLE11=Brooks and Dunn - Cowgirls Don't Cry
TTITLE12=Miranda Lambert - More Like Her
TTITLE13=Little Big Town - Good Lord Willing
TTITLE14=Darius Rucker - It Won't Be Like This For Long
TTITLE15=Taylor Swift - You Belong With Me
TTITLE16=Eli Young Band - Always The Love Song
EXTD=
EXTT0=
EXTT1=
EXTT2=
EXTT3=
EXTT4=
EXTT5=
EXTT6=
EXTT7=
EXTT8=
EXTT9=
EXTT10=
EXTT11=
EXTT12=
EXTT13=
EXTT14=
EXTT15=
EXTT16=
PLAYORDER=
